<svg width="232" height="39" viewBox="0 0 232 39" fill="none" xmlns="http://www.w3.org/2000/svg">
<path d="M112.027 32.4899V13.5182C112.027 9.47664 114.426 6.65869 118.228 6.65869C122.03 6.65869 124.577 9.47664 124.577 13.5182V17.3002C124.577 21.0822 122.104 23.6776 118.265 23.6776H115.349V32.5023C115.349 32.836 115.164 33.0214 114.869 33.0214H112.506C112.211 33.0214 112.027 32.836 112.027 32.5023V32.4899ZM118.142 20.5631C120.061 20.5631 121.206 19.3766 121.206 17.3743V13.3699C121.206 11.2193 120.061 9.81035 118.252 9.81035C116.444 9.81035 115.336 11.2193 115.336 13.3699V20.5631H118.142Z" fill="#009B04"/>
<path d="M127.516 32.49V13.5182C127.516 9.4396 130.026 6.6958 133.828 6.6958C137.63 6.6958 140.177 9.4396 140.177 13.5182V32.49C140.177 32.8237 139.992 33.0091 139.66 33.0091H137.335C137.04 33.0091 136.818 32.8237 136.818 32.49V24.2586H130.838V32.49C130.838 32.8237 130.654 33.0091 130.359 33.0091H127.996C127.701 33.0091 127.516 32.8237 127.516 32.49ZM136.818 21.1934V13.3699C136.818 11.1452 135.748 9.84746 133.828 9.84746C131.909 9.84746 130.838 11.1452 130.838 13.3699V21.1934H136.818Z" fill="#009B04"/>
<path d="M153.971 30.0055C154.303 30.0055 154.488 30.1909 154.488 30.5246V32.6381C154.488 32.9347 154.303 33.1201 153.971 33.1201H150.243C146.478 33.1201 144.153 30.3022 144.153 26.5943V7.54843C144.153 7.2518 144.337 7.06641 144.632 7.06641H146.995C147.327 7.06641 147.512 7.2518 147.512 7.54843V26.4831C147.512 28.5966 148.73 30.0055 150.428 30.0055H153.971Z" fill="#009B04"/>
<path d="M155.558 26.4955V13.6046C155.558 9.78548 158.142 6.96753 161.87 6.96753H165.746C166.041 6.96753 166.226 7.15292 166.226 7.44955V9.56301C166.226 9.89672 166.041 10.0821 165.746 10.0821H162.128C160.209 10.0821 158.917 11.5652 158.917 13.6787V18.3877H164.823C165.155 18.3877 165.34 18.573 165.34 18.9068V20.909C165.34 21.2427 165.155 21.4281 164.823 21.4281H158.917V26.4337C158.917 28.5471 160.209 30.0303 162.128 30.0303H165.746C166.041 30.0303 166.226 30.2156 166.226 30.5494V32.6628C166.226 32.9594 166.041 33.1448 165.746 33.1448H161.87C158.142 33.1448 155.558 30.3269 155.558 26.5078V26.4955Z" fill="#009B04"/>
<path d="M168.391 26.0871C168.391 25.7534 168.575 25.568 168.908 25.568H171.233C171.528 25.568 171.713 25.7534 171.75 26.05C171.824 28.868 172.894 30.277 174.887 30.277C176.881 30.277 177.877 29.2017 177.877 27.1995C177.877 21.4523 168.612 19.7096 168.612 12.6029C168.612 8.96927 171.049 6.67041 174.703 6.67041C178.357 6.67041 180.719 9.45129 180.867 13.7895C180.867 14.0861 180.719 14.2715 180.387 14.2715H178.062C177.766 14.2715 177.582 14.0861 177.582 13.7895C177.471 11.0457 176.474 9.78499 174.74 9.78499C173.005 9.78499 171.934 10.749 171.934 12.6029C171.934 17.9051 181.236 19.6478 181.236 27.1995C181.236 31.0185 178.689 33.4286 174.85 33.4286C171.012 33.4286 168.539 30.5736 168.391 26.0871Z" fill="#009B04"/>
<path d="M194.992 7.54843V9.66189C194.992 9.9956 194.807 10.181 194.475 10.181H190.488V32.4898C190.488 32.8235 190.304 33.0089 189.972 33.0089H187.646C187.351 33.0089 187.166 32.8235 187.166 32.4898V10.181H183.143C182.848 10.181 182.663 9.9956 182.663 9.66189V7.54843C182.663 7.2518 182.848 7.06641 183.143 7.06641H194.475C194.807 7.06641 194.992 7.2518 194.992 7.54843Z" fill="#009B04"/>
<path d="M198.055 7.06641H200.381C200.676 7.06641 200.86 7.2518 200.86 7.54843V32.4898C200.86 32.8235 200.676 33.0089 200.381 33.0089H198.055C197.723 33.0089 197.538 32.8235 197.538 32.4898V7.54843C197.538 7.2518 197.723 7.06641 198.055 7.06641Z" fill="#009B04"/>
<path d="M205.106 32.4899V13.4811C205.106 9.47665 207.579 6.65869 211.418 6.65869C215.256 6.65869 217.766 9.47665 217.766 13.4811V32.4899C217.766 32.8236 217.582 33.009 217.25 33.009H214.924C214.629 33.009 214.407 32.8236 214.407 32.4899V13.3328C214.407 11.2193 213.263 9.81035 211.418 9.81035C209.572 9.81035 208.428 11.2193 208.428 13.3328V32.4899C208.428 32.8236 208.243 33.009 207.948 33.009H205.586C205.29 33.009 205.106 32.8236 205.106 32.4899Z" fill="#009B04"/>
<path d="M221.333 26.4955V13.6046C221.333 9.78548 223.917 6.96753 227.645 6.96753H231.52C231.816 6.96753 232 7.15292 232 7.44955V9.56301C232 9.89672 231.816 10.0821 231.52 10.0821H227.903C225.984 10.0821 224.692 11.5652 224.692 13.6787V18.3877H230.598C230.93 18.3877 231.114 18.573 231.114 18.9068V20.909C231.114 21.2427 230.93 21.4281 230.598 21.4281H224.692V26.4337C224.692 28.5471 225.984 30.0303 227.903 30.0303H231.52C231.816 30.0303 232 30.2156 232 30.5494V32.6628C232 32.9594 231.816 33.1448 231.52 33.1448H227.645C223.917 33.1448 221.333 30.3269 221.333 26.5078V26.4955Z" fill="#009B04"/>
<mask id="mask0_1725_10336" style="mask-type:luminance" maskUnits="userSpaceOnUse" x="55" y="0" width="50" height="38">
<path d="M55.3491 5.18726V35.0477C76.1057 21.8231 85.1613 44.5769 104.134 35.0477V5.18726C85.1613 14.7164 76.1057 -8.03735 55.3491 5.18726Z" fill="white"/>
</mask>
<g mask="url(#mask0_1725_10336)">
<path d="M55.3491 37.4576L107.308 37.8161V1.022L55.3491 0.663574V37.4576Z" fill="#ECEDEF"/>
<path d="M55.3491 12.9737C72.8944 0.935634 93.897 25.1477 107.308 13.3445V1.02215L55.3491 0.651367V12.9613V12.9737Z" fill="black"/>
<path d="M55.3491 25.0491C72.8944 13.011 93.897 36.1355 107.308 24.3322V37.8287L55.3491 37.4579V25.0491Z" fill="#297C2B"/>
<path d="M55.3491 5.18705C55.3491 5.18705 68.0959 4.5938 81.4455 18.9554C81.4455 18.9554 57.9698 27.6812 55.3491 35.0598V5.18705Z" fill="#D40000"/>
</g>
<path d="M63.9839 0.974356C68.2279 0.215769 73.3612 0.250248 78.3823 2.18139C88.132 5.93126 95.889 8.13274 103.52 4.54174L104.589 4.03881V35.5007L104.328 35.7253C101.878 37.8251 94.4808 40.4185 83.439 35.8494C78.0008 33.599 73.7855 32.0142 69.5562 31.7654C65.3674 31.519 61.0933 32.5826 55.5718 35.8035L54.4438 36.4617V4.87182L54.7104 4.64623C56.3268 3.28511 59.7645 1.72859 63.9839 0.974356ZM77.8442 3.58178C73.1363 1.77104 68.2904 1.72829 64.2476 2.45092C60.429 3.13353 57.4123 4.48235 55.9438 5.58275V33.8699C61.1299 31.0293 65.3906 30.0172 69.644 30.2673C74.1614 30.5331 78.5999 32.2226 84.0132 34.4626C94.2366 38.693 100.872 36.4325 103.089 34.7917V6.36596C95.1659 9.5754 87.1346 7.15498 77.8442 3.58178Z" fill="white"/>
<path d="M8.14524 5.22372V12.5282C8.14524 14.1473 7.25937 15.1855 5.83212 15.1855C5.02007 15.1855 4.54022 14.8147 4.1465 14.2833C3.76508 14.8147 3.26062 15.1855 2.48548 15.1855C1.04594 15.1855 0.172363 14.1473 0.172363 12.5282V5.22372C0.172363 5.11249 0.246187 5.03833 0.356921 5.03833H1.2551C1.36583 5.03833 1.43966 5.11249 1.43966 5.22372V12.59C1.43966 13.4799 1.80877 13.9743 2.49779 13.9743C3.12528 13.9743 3.53131 13.4799 3.53131 12.59V5.22372C3.53131 5.11249 3.60513 5.03833 3.71586 5.03833H4.61404C4.72478 5.03833 4.7986 5.11249 4.7986 5.22372V12.59C4.7986 13.4799 5.24154 13.9743 5.84443 13.9743C6.52114 13.9743 6.87795 13.4799 6.87795 12.59V5.22372C6.87795 5.11249 6.95177 5.03833 7.06251 5.03833H7.96069C8.08372 5.03833 8.15755 5.11249 8.15755 5.22372H8.14524Z" fill="#EC6060"/>
<path d="M9.52295 12.5159V7.54741C9.52295 6.07663 10.5196 4.98901 11.9468 4.98901H13.4356C13.5463 4.98901 13.6201 5.06317 13.6201 5.1744V5.99013C13.6201 6.11371 13.5463 6.18787 13.4356 6.18787H12.0452C11.307 6.18787 10.8148 6.7564 10.8148 7.57213V9.38896H13.0911C13.2141 9.38896 13.2879 9.46312 13.2879 9.58672V10.353C13.2879 10.4766 13.2141 10.5508 13.0911 10.5508H10.8148V12.4788C10.8148 13.2945 11.307 13.8631 12.0452 13.8631H13.4356C13.5463 13.8631 13.6201 13.9372 13.6201 14.0608V14.8766C13.6201 14.9878 13.5463 15.062 13.4356 15.062H11.9468C10.5073 15.062 9.52295 13.9743 9.52295 12.5035V12.5159Z" fill="#EC6060"/>
<path d="M17.5574 12.3557C17.5574 12.2321 17.6312 12.1579 17.7542 12.1579H18.6524C18.7631 12.1579 18.837 12.2321 18.8493 12.3433C18.8739 13.4309 19.2922 13.9748 20.055 13.9748C20.8179 13.9748 21.2116 13.5669 21.2116 12.7883C21.2116 10.5759 17.6435 9.90851 17.6435 7.16471C17.6435 5.76805 18.5786 4.87817 19.9935 4.87817C21.4085 4.87817 22.3066 5.95345 22.3682 7.62201C22.3682 7.73324 22.3066 7.8074 22.1836 7.8074H21.2854C21.1747 7.8074 21.1009 7.73324 21.1009 7.62201C21.064 6.57145 20.6702 6.07708 20.0058 6.07708C19.3414 6.07708 18.9231 6.44786 18.9231 7.16471C18.9231 9.20402 22.5035 9.87143 22.5035 12.7883C22.5035 14.259 21.5192 15.186 20.0427 15.186C18.5663 15.186 17.6066 14.086 17.5574 12.3557Z" fill="#EC6060"/>
<path d="M27.8066 5.22372V6.03944C27.8066 6.1631 27.7328 6.23726 27.6098 6.23726H26.0718V14.8271C26.0718 14.9507 25.998 15.0248 25.8749 15.0248H24.9768C24.866 15.0248 24.7922 14.9507 24.7922 14.8271V6.23726H23.2419C23.1312 6.23726 23.0574 6.1631 23.0574 6.03944V5.22372C23.0574 5.11249 23.1312 5.03833 23.2419 5.03833H27.6098C27.7328 5.03833 27.8066 5.11249 27.8066 5.22372Z" fill="#EC6060"/>
<path d="M28.6306 14.8268V7.5224C28.6306 5.9528 29.6026 4.88989 31.0545 4.88989C32.5063 4.88989 33.5029 5.94045 33.5029 7.5224V14.8268C33.5029 14.9504 33.4291 15.0246 33.3061 15.0246H32.4079C32.2972 15.0246 32.211 14.9504 32.211 14.8268V11.6628H29.9102V14.8268C29.9102 14.9504 29.8364 15.0246 29.7257 15.0246H28.8152C28.7044 15.0246 28.6306 14.9504 28.6306 14.8268ZM32.211 10.4763V7.46061C32.211 6.60781 31.805 6.10107 31.0545 6.10107C30.3039 6.10107 29.8979 6.59545 29.8979 7.46061V10.4763H32.1987H32.211Z" fill="#EC6060"/>
<path d="M35.0414 14.8277V7.49853C35.0414 5.9536 35.9888 4.86597 37.4652 4.86597C38.9417 4.86597 39.9137 5.9536 39.9137 7.49853V14.8277C39.9137 14.9513 39.8398 15.0254 39.7168 15.0254H38.8186C38.7079 15.0254 38.6218 14.9513 38.6218 14.8277V7.44909C38.6218 6.63337 38.1788 6.08955 37.4652 6.08955C36.7516 6.08955 36.3087 6.63337 36.3087 7.44909V14.8277C36.3087 14.9513 36.2348 15.0254 36.1241 15.0254H35.2136C35.1029 15.0254 35.0291 14.9513 35.0291 14.8277H35.0414Z" fill="#EC6060"/>
<path d="M41.5374 14.4934V5.55755C41.5374 5.18676 41.7465 4.98901 42.1156 4.98901H43.9489C45.4377 4.98901 46.3851 6.07663 46.3851 7.57213V12.4788C46.3851 13.9743 45.4377 15.062 43.9489 15.062H42.1156C41.7465 15.062 41.5374 14.8642 41.5374 14.4934ZM43.912 13.8754C44.6502 13.8754 45.0932 13.3316 45.0932 12.5159V7.54741C45.0932 6.73168 44.6625 6.18787 43.912 6.18787H42.8293V13.8631H43.912V13.8754Z" fill="#EC6060"/>
<path d="M14.1248 18.0288V30.9568C14.1248 33.8118 12.5622 35.6533 10.0276 35.6533C8.58807 35.6533 7.7391 34.9983 7.03779 34.059C6.36108 34.9983 5.4752 35.6533 4.09717 35.6533C1.56259 35.6533 0 33.8118 0 30.9568V18.0288C0 17.831 0.123039 17.6951 0.332204 17.6951H1.9194C2.11626 17.6951 2.2516 17.8187 2.2516 18.0288V31.0556C2.2516 32.6253 2.9037 33.5028 4.10948 33.5028C5.21682 33.5028 5.94275 32.6129 5.94275 31.0556V18.0288C5.94275 17.831 6.06578 17.6951 6.27495 17.6951H7.86214C8.059 17.6951 8.19435 17.8187 8.19435 18.0288V31.0556C8.19435 32.6253 8.96949 33.5028 10.0522 33.5028C11.258 33.5028 11.8855 32.6129 11.8855 31.0556V18.0288C11.8855 17.831 12.0085 17.6951 12.2177 17.6951H13.8049C14.0264 17.6951 14.1617 17.8187 14.1617 18.0288H14.1248Z" fill="white"/>
<path d="M19.33 17.6951H20.9172C21.114 17.6951 21.2494 17.8187 21.2494 18.0288V35.023C21.2494 35.2455 21.1263 35.3814 20.9172 35.3814H19.33C19.1085 35.3814 18.9731 35.2578 18.9731 35.023V18.0288C18.9731 17.831 19.0962 17.6951 19.33 17.6951Z" fill="white"/>
<path d="M33.3068 18.0288V19.4625C33.3068 19.6849 33.1837 19.8209 32.95 19.8209H30.2308V35.023C30.2308 35.2455 30.1078 35.3814 29.874 35.3814H28.2868C28.09 35.3814 27.9546 35.2578 27.9546 35.023V19.8209H25.2109C25.014 19.8209 24.8787 19.6973 24.8787 19.4625V18.0288C24.8787 17.831 25.0017 17.6951 25.2109 17.6951H32.9254C33.1468 17.6951 33.2822 17.8187 33.2822 18.0288H33.3068Z" fill="white"/>
<path d="M43.5436 17.6951H45.1308C45.3277 17.6951 45.463 17.8187 45.463 18.0288V35.023C45.463 35.2455 45.34 35.3814 45.1308 35.3814H43.5436C43.3222 35.3814 43.1868 35.2578 43.1868 35.023V27.4714H39.3111V35.023C39.3111 35.2455 39.1881 35.3814 38.9789 35.3814H37.3917C37.1703 35.3814 37.0349 35.2578 37.0349 35.023V18.0288C37.0349 17.831 37.158 17.6951 37.3917 17.6951H38.9789C39.1758 17.6951 39.3111 17.8187 39.3111 18.0288V25.3826H43.1868V18.0288C43.1868 17.831 43.3099 17.6951 43.5436 17.6951Z" fill="white"/>
</svg>
